<svg width="28" height="28" viewBox="0 0 28 28" fill="none" xmlns="http://www.w3.org/2000/svg">
<path fill-rule="evenodd" clip-rule="evenodd" d="M12.394 0.0483662C11.116 0.165332 9.84933 0.466218 8.64398 0.939162C5.14693 2.31132 2.32018 5.13817 0.945397 8.63795C-0.145717 11.4156 -0.296978 14.4835 0.515613 17.3552C1.55753 21.0374 4.11875 24.119 7.56629 25.8385C11.5661 27.8334 16.3503 27.7309 20.2349 25.5672C24.2227 23.3459 26.8402 19.3199 27.2237 14.8174C27.5291 11.2317 26.4562 7.766 24.1762 4.97317C23.7965 4.50817 23.0273 3.7206 22.5531 3.31148C20.6411 1.66189 18.4149 0.613798 15.9051 0.181662C14.8739 0.00411617 13.4629 -0.0494406 12.394 0.0483662ZM14.7501 4.9205C16.4673 5.27549 17.8742 6.35556 18.6621 7.92391C19.0608 8.71748 19.2417 9.49271 19.2422 10.4107C19.2427 11.2971 19.0626 12.0899 18.6845 12.8652C18.3172 13.6184 18.166 13.8099 16.9565 15.0537C16.4606 15.5637 16.0549 15.9914 16.0548 16.0042C16.0548 16.0171 16.5734 16.2609 17.2073 16.546C18.5207 17.1368 18.7172 17.2331 19.2227 17.5337C20.6177 18.3634 21.8512 19.5632 22.7375 20.9523C22.8359 21.1065 22.9113 21.255 22.9052 21.2822C22.8846 21.3734 22.1612 22.1463 21.7525 22.5138C20.8019 23.3686 19.9537 23.9389 18.8201 24.4854C14.8776 26.386 10.1733 25.9633 6.59852 23.3873C5.97432 22.9375 5.29877 22.3428 4.83889 21.8383L4.53251 21.5022L4.62364 21.3428C4.67375 21.2551 4.84189 20.9916 4.99727 20.7573C5.94708 19.3247 7.27761 18.1105 8.78034 17.3048C9.00534 17.1842 9.67649 16.8569 10.2717 16.5776C10.867 16.2983 11.3541 16.0612 11.3541 16.0508C11.3542 16.0403 10.9397 15.6285 10.4332 15.1355C9.92661 14.6425 9.42251 14.1294 9.31294 13.9954C8.89076 13.4787 8.57235 12.9173 8.35294 12.3027C7.66645 10.38 8.08298 8.22831 9.43744 6.70018C10.3938 5.62117 11.6072 5.00948 13.161 4.823C13.483 4.78438 14.3483 4.83746 14.7501 4.9205Z" fill="#828282"/>
</svg>
