<svg width="13" height="14" viewBox="0 0 13 14" fill="none" xmlns="http://www.w3.org/2000/svg">
<path fill-rule="evenodd" clip-rule="evenodd" d="M6.33678 0.107147C9.69303 0.107147 12.423 2.83715 12.423 6.1934C12.423 7.77686 11.8154 9.22107 10.8209 10.305L12.7777 12.2576C12.9608 12.4407 12.9614 12.737 12.7783 12.9201C12.687 13.0126 12.5664 13.0582 12.4464 13.0582C12.327 13.0582 12.207 13.0126 12.1152 12.9213L10.1348 10.9465C9.09308 11.7808 7.77221 12.2803 6.33678 12.2803C2.98053 12.2803 0.249908 9.54965 0.249908 6.1934C0.249908 2.83715 2.98053 0.107147 6.33678 0.107147ZM6.33678 1.04465C3.49741 1.04465 1.18741 3.35402 1.18741 6.1934C1.18741 9.03277 3.49741 11.3428 6.33678 11.3428C9.17553 11.3428 11.4855 9.03277 11.4855 6.1934C11.4855 3.35402 9.17553 1.04465 6.33678 1.04465Z" fill="black"/>
</svg>
