<svg width="20" height="25" viewBox="0 0 20 25" fill="none" xmlns="http://www.w3.org/2000/svg">
<path fill-rule="evenodd" clip-rule="evenodd" d="M0.936087 0.0498302C0.671981 0.126352 0.32372 0.397608 0.171063 0.645627L0.0247343 0.883357L0.0123671 12.3112L0 23.739L0.123527 23.9915C0.256425 24.2632 0.428696 24.4324 0.743768 24.601L0.942609 24.7074H9.95227H18.9619L19.2191 24.5649C19.5034 24.4074 19.7393 24.142 19.8363 23.8704C19.8876 23.7267 19.9001 22.1721 19.9018 15.7111L19.904 7.7293L19.5062 7.30529C19.2875 7.0721 17.6583 5.35669 15.8859 3.49326C13.6057 1.09601 12.618 0.089492 12.5083 0.0512311C12.315 -0.0161602 1.16845 -0.0175128 0.936087 0.0498302ZM11.5093 4.89708C11.5221 8.24481 11.5239 8.30157 11.6218 8.43572C11.6765 8.51075 11.817 8.62104 11.9339 8.6808L12.1467 8.78949H15.3007H18.4547V16.0117V23.2339H9.95227H1.44986V12.3644V1.49481H6.47304H11.4963L11.5093 4.89708ZM14.8611 4.57452C15.8656 5.6307 16.8607 6.67418 17.0724 6.89336L17.4573 7.29191H15.2265H12.9957V4.97307C12.9957 3.6977 13.0045 2.65423 13.0152 2.65423C13.0259 2.65423 13.8566 3.51833 14.8611 4.57452ZM9.66242 11.2189C9.50493 11.2983 7.54696 13.5492 7.45923 13.7517C7.37121 13.9549 7.37425 14.0759 7.47256 14.2831C7.62222 14.5984 8.03517 14.7294 8.35618 14.5634C8.43222 14.5241 8.66483 14.2926 8.87309 14.0491L9.25179 13.6062L9.27594 15.1954C9.29792 16.6417 9.30831 16.7982 9.39121 16.9351C9.51589 17.1411 9.70826 17.2436 9.9701 17.2436C10.1473 17.2436 10.2236 17.2145 10.36 17.0947C10.4552 17.0112 10.5513 16.868 10.5788 16.7686C10.6072 16.6665 10.6291 15.9466 10.6304 15.0697L10.6328 13.5479L11.0534 13.9907C11.5187 14.4806 11.604 14.5383 11.8619 14.5383C12.1086 14.5383 12.304 14.4075 12.4221 14.1634C12.5502 13.8988 12.5154 13.6833 12.305 13.4383C11.6346 12.658 10.3029 11.2373 10.2081 11.2012C10.0447 11.1391 9.80546 11.1468 9.66242 11.2189ZM5.23324 16.6112C4.8701 16.7791 4.85565 16.8431 4.85565 18.2844C4.85565 19.6798 4.86087 19.7055 5.18435 19.9027C5.33454 19.9943 5.4644 19.9969 9.95227 19.9969C14.4401 19.9969 14.57 19.9943 14.7202 19.9027C15.0437 19.7055 15.0489 19.6798 15.0489 18.2844C15.0489 16.8321 15.0357 16.7758 14.6591 16.6092C14.3802 16.4858 14.1507 16.5266 13.9403 16.7371C13.7402 16.9372 13.7204 17.0464 13.7204 17.9501V18.6929H9.95618H6.19198L6.17599 17.8354C6.16232 17.1031 6.14715 16.959 6.07213 16.8484C5.87449 16.5573 5.54903 16.4652 5.23324 16.6112Z" fill="#828282"/>
</svg>
